<?xml version="1.0" standalone="no"?><!-- Generator: Gravit.io --><svg xmlns="http://www.w3.org/2000/svg" xmlns:xlink="http://www.w3.org/1999/xlink" style="isolation:isolate" viewBox="0 0 640 480" width="640" height="480"><defs><clipPath id="_clipPath_cZKXjHbjPKwbvykT5VFzbOn19LQsmMyS"><rect width="640" height="480"/></clipPath></defs><g clip-path="url(#_clipPath_cZKXjHbjPKwbvykT5VFzbOn19LQsmMyS)"><g style="isolation:isolate"><ellipse vector-effect="non-scaling-stroke" cx="332.4335839598998" cy="106.3458646616541" rx="29" ry="27.999999999999993" fill="rgb(152,0,0)"/><polygon points="306.03,93.924,334.55,23.875,358.837,94.346" fill="rgb(152,0,0)"/></g><g style="isolation:isolate"><ellipse vector-effect="non-scaling-stroke" cx="332.9335839598998" cy="101.74624769777266" rx="21.5" ry="25.59961696388146" fill="rgb(255,0,0)"/><polygon points="313.359,90.39,334.503,26.346,352.509,90.775" fill="rgb(255,0,0)"/></g><g style="isolation:isolate"><ellipse vector-effect="non-scaling-stroke" cx="333.4335839598998" cy="97.76009391416403" rx="6" ry="24.585770747490102" fill="rgb(255,106,73)"/><polygon points="327.971,86.853,333.872,25.346,338.896,87.223" fill="rgb(255,106,73)"/></g><g style="isolation:isolate"><path d=" M 59.045 47.92 C 39.176 47.997 43.392 42.49 34.913 39.548 Q 26.433 36.607 10.78 31.177 L 57.545 30.996 L 104.311 30.815 Q 89.63 36.363 81.678 39.368 C 73.726 42.372 78.914 47.843 59.045 47.92 Z " fill="rgb(152,0,0)"/></g><g style="isolation:isolate"><path d=" M 221.005 65.929 C 207.138 66.021 214.874 47.477 198.437 37.929 Q 182.001 28.382 174.244 26.587 L 221.005 25.969 L 267.767 25.352 Q 251.875 33.476 245.199 37.929 C 238.523 42.383 234.872 65.838 221.005 65.929 Z " fill="rgb(152,0,0)"/><path d=" M 222.065 56.553 C 210.489 56.634 216.964 42.829 203.252 35.74 Q 189.539 28.651 183.065 27.323 L 222.103 26.819 L 261.141 26.316 Q 247.867 32.375 242.289 35.696 C 236.712 39.016 233.642 56.471 222.065 56.553 Z " fill="rgb(255,0,0)"/></g><g style="isolation:isolate"><path d=" M 470.549 78.504 C 469.218 76.317 467.375 74.417 465.063 73.003 C 457.051 68.098 446.43 70.865 441.359 79.176 C 436.289 87.488 438.676 98.218 446.688 103.122 C 448.914 104.484 451.341 105.255 453.795 105.479 L 453.732 105.582 L 475.846 110.457 L 497.96 115.333 L 484.32 96.813 L 470.68 78.293 L 470.549 78.504 Z " fill-rule="evenodd" fill="rgb(152,0,0)"/><path d=" M 470.093 83.377 C 468.771 81.55 467.026 79.91 464.913 78.617 C 457.588 74.133 448.589 75.495 444.83 81.658 C 441.071 87.82 443.965 96.463 451.29 100.946 C 453.325 102.192 455.49 102.987 457.635 103.352 L 457.588 103.428 L 477.141 108.976 L 496.694 114.524 L 483.443 98.872 L 470.191 83.22 L 470.093 83.377 Z " fill-rule="evenodd" fill="rgb(255,0,0)"/><path d=" M 467.367 91.974 C 465.789 90.724 463.94 89.433 461.911 88.19 C 454.876 83.884 448.313 81.784 447.264 83.504 C 446.215 85.224 451.074 90.116 458.109 94.422 C 460.063 95.618 461.982 96.645 463.755 97.466 L 463.742 97.487 L 480.577 106 L 497.413 114.514 L 482.404 103.222 L 467.395 91.931 L 467.367 91.974 Z " fill-rule="evenodd" fill="rgb(255,106,73)"/></g><g style="isolation:isolate"><path d=" M 549.118 102.501 C 551.626 101.989 554.038 100.898 556.152 99.202 C 563.479 93.325 564.473 82.394 558.369 74.808 C 552.266 67.223 541.361 65.836 534.034 71.714 C 531.998 73.347 530.451 75.37 529.41 77.603 L 529.334 77.508 L 517.258 96.665 L 505.182 115.822 L 527.227 109.259 L 549.272 102.696 L 549.118 102.501 Z " fill-rule="evenodd" fill="rgb(152,0,0)"/><path d=" M 544.687 100.423 C 546.854 99.797 548.987 98.711 550.92 97.16 C 557.619 91.786 559.384 82.858 554.859 77.234 C 550.334 71.61 541.222 71.407 534.523 76.781 C 532.661 78.274 531.181 80.041 530.11 81.936 L 530.055 81.866 L 518.213 98.385 L 506.372 114.905 L 525.587 107.736 L 544.801 100.567 L 544.687 100.423 Z " fill-rule="evenodd" fill="rgb(255,0,0)"/><path d=" M 537.521 94.946 C 539.232 93.884 541.072 92.582 542.929 91.093 C 549.363 85.932 553.561 80.468 552.298 78.899 C 551.035 77.329 544.786 80.245 538.353 85.406 C 536.565 86.84 534.95 88.297 533.576 89.688 L 533.561 89.668 L 519.85 102.626 L 506.139 115.584 L 521.845 105.286 L 537.552 94.987 L 537.521 94.946 Z " fill-rule="evenodd" fill="rgb(255,106,73)"/></g><g style="isolation:isolate"><path d=" M 516.56 64.116 C 517.681 61.815 518.284 59.237 518.226 56.528 C 518.024 47.136 509.957 39.694 500.223 39.917 C 490.49 40.141 482.751 47.948 482.953 57.339 C 483.009 59.948 483.673 62.407 484.81 64.593 L 484.689 64.595 L 492.535 85.838 L 500.38 107.081 L 508.595 85.597 L 516.809 64.113 L 516.56 64.116 Z " fill-rule="evenodd" fill="rgb(152,0,0)"/><path d=" M 512.214 66.366 C 513.037 64.266 513.474 61.912 513.421 59.435 C 513.236 50.849 507.227 44.012 500.011 44.178 C 492.794 44.344 487.086 51.45 487.27 60.036 C 487.322 62.422 487.823 64.673 488.674 66.675 L 488.584 66.677 L 494.481 86.128 L 500.377 105.579 L 506.388 85.971 L 512.398 66.363 L 512.214 66.366 Z " fill-rule="evenodd" fill="rgb(255,0,0)"/><path d=" M 503.507 68.716 C 503.706 66.713 503.794 64.46 503.742 62.081 C 503.565 53.835 501.786 47.178 499.772 47.224 C 497.758 47.27 496.267 54.003 496.445 62.249 C 496.494 64.54 496.667 66.709 496.934 68.645 L 496.909 68.645 L 498.841 87.411 L 500.774 106.178 L 502.166 87.447 L 503.558 68.717 L 503.507 68.716 Z " fill-rule="evenodd" fill="rgb(255,106,73)"/></g></g></svg>